<?xml version="1.0" encoding="iso-8859-1"?>
<!-- Generator: Adobe Illustrator 19.0.0, SVG Export Plug-In . SVG Version: 6.00 Build 0)  -->
<svg version="1.1" id="Capa_1" xmlns="http://www.w3.org/2000/svg" xmlns:xlink="http://www.w3.org/1999/xlink" x="0px" y="0px"
	 viewBox="0 0 512 512" style="enable-background:new 0 0 94 94;" xml:space="preserve">
<g>
	<g>
		<path d="M497,60h-15V15c0-8.284-6.716-15-15-15s-15,6.716-15,15v45h-30V15c0-8.284-6.716-15-15-15s-15,6.716-15,15v45h-15
			c-8.284,0-15,6.716-15,15v60c0,24.813,20.187,45,45,45h15v195c0,8.271-6.729,15-15,15s-15-6.729-15-15v-90
			c0-24.813-20.187-45-45-45h-15V45c0-24.813-20.187-45-45-45H75C50.187,0,30,20.187,30,45v379.58C12.541,430.772,0,447.445,0,467
			v30c0,8.284,6.716,15,15,15h332c8.284,0,15-6.716,15-15v-30c0-19.555-12.541-36.228-30-42.42V270h15c8.271,0,15,6.729,15,15v90
			c0,24.813,20.187,45,45,45s45-20.187,45-45V180h15c24.813,0,45-20.187,45-45V75C512,66.716,505.284,60,497,60z M60,45
			c0-8.271,6.729-15,15-15h212c8.271,0,15,6.729,15,15v135H60V45z M60,210h242v212H60V210z M332,482H30v-15c0-8.271,6.729-15,15-15
			h272c8.271,0,15,6.729,15,15V482z M482,135c0,8.271-6.729,15-15,15h-60c-8.271,0-15-6.729-15-15V90h90V135z"/>
	</g>
</g>
<g>
	<g>
		<path d="M223.76,307.114C221.026,302.692,216.198,300,211,300h-35.729l19.146-38.292c3.705-7.41,0.702-16.42-6.708-20.125
			c-7.41-3.705-16.42-0.701-20.124,6.708l-30,60c-2.325,4.65-2.077,10.172,0.656,14.594c2.733,4.422,7.562,7.114,12.76,7.114h35.729
			l-19.146,38.292c-3.705,7.41-0.702,16.42,6.708,20.125c7.423,3.712,16.427,0.687,20.124-6.708l30-60
			C226.741,317.058,226.493,311.536,223.76,307.114z"/>
	</g>
</g>
<g>
	<g>
		<path d="M257,60H105c-8.284,0-15,6.716-15,15v60c0,8.284,6.716,15,15,15h152c8.284,0,15-6.716,15-15V75
			C272,66.716,265.284,60,257,60z M242,120H120V90h122V120z"/>
	</g>
</g>
<g>
</g>
<g>
</g>
<g>
</g>
<g>
</g>
<g>
</g>
<g>
</g>
<g>
</g>
<g>
</g>
<g>
</g>
<g>
</g>
<g>
</g>
<g>
</g>
<g>
</g>
<g>
</g>
<g>
</g>
</svg>
