<svg id="Capa_1" data-name="Capa 1" xmlns="http://www.w3.org/2000/svg" viewBox="0 0 369.54 83.56"><defs><style>.cls-1{font-size:36px;font-family:Krungthep;}</style></defs><path d="M81.11,9.79H78.66V2.45a2.45,2.45,0,0,0-4.9,0V9.79H68.87V2.45a2.45,2.45,0,0,0-4.9,0V9.79H61.52a2.45,2.45,0,0,0-2.44,2.45V22a7.35,7.35,0,0,0,7.34,7.35h2.45V61.2a2.45,2.45,0,1,1-4.9,0V46.51a7.34,7.34,0,0,0-7.34-7.34H54.18V7.34A7.34,7.34,0,0,0,46.84,0H12.24A7.34,7.34,0,0,0,4.9,7.34v62A7.36,7.36,0,0,0,0,76.21v4.9a2.45,2.45,0,0,0,2.45,2.45H56.63a2.45,2.45,0,0,0,2.45-2.45v-4.9a7.36,7.36,0,0,0-4.9-6.92V44.06h2.45a2.45,2.45,0,0,1,2.45,2.45V61.2a7.34,7.34,0,0,0,14.68,0V29.38h2.45A7.36,7.36,0,0,0,83.56,22V12.24A2.45,2.45,0,0,0,81.11,9.79ZM9.79,7.34A2.45,2.45,0,0,1,12.24,4.9h34.6a2.44,2.44,0,0,1,2.44,2.44v22H9.79Zm0,26.93H49.28v34.6H9.79ZM54.18,78.66H4.9V76.21a2.45,2.45,0,0,1,2.44-2.45H51.73a2.45,2.45,0,0,1,2.45,2.45ZM78.66,22a2.45,2.45,0,0,1-2.45,2.45H66.42A2.45,2.45,0,0,1,64,22V14.69H78.66Z"/><path d="M36.52,50.12A2.47,2.47,0,0,0,34.43,49H28.6l3.13-6.25a2.45,2.45,0,0,0-4.38-2.19l-4.9,9.79a2.45,2.45,0,0,0,2.19,3.54h5.83L27.35,60.1a2.45,2.45,0,1,0,4.38,2.19l4.89-9.79A2.46,2.46,0,0,0,36.52,50.12Z"/><path d="M41.94,9.79H17.14a2.45,2.45,0,0,0-2.45,2.45V22a2.45,2.45,0,0,0,2.45,2.45h24.8A2.45,2.45,0,0,0,44.39,22V12.24A2.45,2.45,0,0,0,41.94,9.79Zm-2.45,9.79H19.58V14.69H39.49Z"/><text class="cls-1" transform="translate(102.61 51.57)">ChargeWeave</text></svg>